<?xml version="1.0" encoding="UTF-8"?>
<svg version="1.1" viewBox="0 0 800 779.79" xmlns="http://www.w3.org/2000/svg">
 <g transform="translate(-29.999 -29.996)">
  <g transform="translate(32.852 54.387)">
   <path d="m409.25-24.375c-3.9811 0.19816-8.0213 2.2073-10.781 5.9375-2.4813 3.3536-2.9312 4.9697-3.0938 11.062-0.0767 2.8714-0.23331 8.053-0.34375 11.5-0.11042 3.447-0.0111 7.6808 0.21875 9.4062 0.23033 1.7254 0.30821 4.6422 0.1875 6.4688-0.1869 2.8238 0.79757 11.798 1.4062 12.969 0.0926 0.1783 0.0788 3.6826 0 7.7812-0.12131 6.2999-0.0138 7.8185 0.65625 9.8125 0.94332 2.8076 0.48079 12.796-0.90625 19.469-0.67313 3.2383-0.76014 4.562-0.5 9.1875 0.16693 2.9695 0.15616 9.1568-0.0312 13.75-0.34087 8.3513-0.35073 8.3775 1.1562 11.406 2.6272 5.2803 2.4369 5.0858 8.2188 6.0312 2.7802 0.45463 5.0556 0.87005 5.0938 0.90625 0.28962 0.27481 1.4804-1.3512 1.5312-2.0938 0.0453-0.66249 0.94475-1.5093 3.0938-2.9375 4.5549-3.0273 4.8912-3.9792 5.75-15.969 0.67276-9.392 0.6702-9.4034-0.3125-11.406-0.70417-1.4353-0.90098-2.3021-0.65625-3.0625 0.20127-0.62533 0.13519-1.7667-0.1875-2.7812-0.41988-1.3201-0.45984-3.1951-0.125-8.0938 0.41117-6.0149 0.53006-6.5044 1.625-8.2812 1.1473-1.8617 1.1543-2.0393 1.8125-11.781 0.36696-5.4321 0.69783-13.264 0.75-17.406 0.0521-4.142 0.21233-12.986 0.34375-19.656 0.32872-16.68-0.52221-22.007-4.4375-27.344-2.5431-3.4662-6.4877-5.0732-10.469-4.875zm-81.41 25.188c-2.1123-0.0591-4.2464 0.33466-5.6562 1.1562-4.7287 2.7557-6.3234 8.2882-4.9062 17.094 0.34709 2.157 0.65711 6.0224 0.6875 8.5625 0.0621 5.1818 0.32666 7.1172 1.5 11.312 0.75355 2.6944 1.3836 4.3439 3.8125 10 0.50985 1.1873 2.1445 6.0087 3.625 10.719 1.4805 4.7101 2.9949 9.5093 3.375 10.688 0.38013 1.1782 1.2536 4.7996 1.9688 8.0625 1.4314 6.5305 5.2662 16.423 8.1875 21.125 2.2202 3.5736 2.424 4.0739 4 9.9375 3.1887 11.864 3.8294 13.28 7.1875 16.281 1.0471 0.93587 2.3207 1.7468 2.8125 1.7812 2.0909 0.15145 8.1459-8.3079 7.4062-10.344-0.4513-1.2421-2.2782-8.4932-3.0312-12.031-0.40821-1.9175-0.40459-2.6544 0.0312-3.4688 0.67944-1.2692 0.14412-4.8074-1.5625-10.312-2.6357-8.5021-4.7294-18.116-4.375-20.031 0.31-1.648-0.03-5.519-0.9-10.35-0.16738-0.933-1.1019-3.5293-2.0625-5.75-1.7465-4.0376-1.7147-4.0432-1.0625-9.7812 1.0438-9.1841-0.64206-20.271-4.6875-31.312-1.5216-4.1531-5.4199-8.4713-10.75-11.875-1.4102-0.90051-3.4814-1.4096-5.5938-1.4688zm157.31 11.219c-5.6874 0.20492-9.2876 2.7514-12.594 8.625-1.9276 3.4244-1.9545 3.4078-2.4688 10.281-0.4952 6.6182-0.94636 8.9442-2.4062 12-0.80196 1.6786-2.0681 8.378-1.875 9.9688 0.0744 0.61229-0.15477 2.4553-0.53125 4.125-2.6813 11.891-3.7744 18.596-4.3438 26.875-0.58839 8.5561-0.58054 8.5742-3.7812 10.938-3.7615 2.7774-6.6236 5.8539-7.6875 8.3438-0.41901 0.98056-0.99086 2.0719-1.3125 2.4062-1.8922 1.9673-5.1838 11.81-7.6562 22.938-0.62919 2.8318-1.2595 5.3426-1.375 5.5938-0.12665 0.27565-1.7979 0.4537-4.25 0.40625-3.4224-0.0661-4.5478 0.0558-7.0312 1-2.9479 1.1208-2.9325 1.156-5.125-0.40625-4.4235-3.152-6.3531-3.7636-14.281-4.375-8.7393-0.67388-10.614-0.26169-14.844 3.3125-4.4196 3.7348-5.8142 6.5967-6.2812 12.75-0.20884 2.7516-0.63099 5.4981-0.9375 6.125-0.30647 0.62689-0.56073 1.5172-0.59375 2-0.09 1.3182-1.3907 2.3518-2.8438 2.25-1.0495-0.0736-1.7587-0.69691-3.9375-3.2812-5.3668-6.3656-8.9463-6.6296-16.031-1.1562-2.2635 1.7487-3.6615 2.5063-5.375 2.875-3.2668 0.70295-4.9987 1.4031-5.5625 2.3125-0.26815 0.43251-0.68502 0.80121-0.96875 0.78125-0.59465-0.0416-3.3929 2.7839-4.8125 4.875-1.1112 1.6368-1.1353 1.63-2.875 0.59375-2.2481-1.3391-7.9606-1.8411-11.156-0.96875-4.6924 1.281-9.2024 4.7829-11.594 9.0312-0.62361 1.1079-1.7808 2.9344-2.5625 4.0312-2.5221 3.5388-2.7974 4.6277-3.3438 12.344-0.99395 14.04-1.0083 18.628 0.0312 21.219 0.87537 2.1812 3.529 5.2022 4.6562 5.2812 0.96867 0.0679 1.7044 1.6734 2.5312 5.5938 1.062 5.035 2.9022 9.1233 4.8125 10.688 0.46474 0.38051 1.2467 1.7301 1.7188 3 0.47207 1.27 1.6162 3.1965 2.5625 4.2812 1.2942 1.4836 1.6906 2.2904 1.625 3.25-0.1626 2.3784 0.54096 5.7754 1.5625 7.5312 0.96619 1.6605 0.99566 2.0123 0.78125 7.5625-0.24709 6.3973 0.0771 7.7857 2.5938 12.281 1.1455 2.0462 1.2562 2.667 1.5 8.3125 0.50016 11.579 0.63009 13.222 1.2812 15.562 0.80418 2.8911 2.9416 6.3272 7.0625 11.281 4.1039 4.9336 6.1809 6.1614 13.156 7.5312 2.7754 0.545 5.6078 1.0865 6.2812 1.2188 8.4598 1.6609 13.824 0.72622 20.844-3.625 3.7281-2.3109 5.9071-2.7058 15.375-2.7812 3.073-0.0245 7.8442-0.27818 10.594-0.5625 5.8699-0.60705 10.979-1.0929 14.844-1.4062 2.6149-0.21197 3.3079-0.36817 6.4375-1.4688 0.69933-0.24598 2.8346-0.71509 4.7188-1.0625 4.9757-0.91752 9.928-2.7655 12.25-4.5625 1.1146-0.8626 3.0543-2.1822 4.3125-2.9062 1.2582-0.7241 2.752-1.8125 3.2812-2.4062 1.2069-1.354 2.4987-1.9855 3.9062-1.9062 1.5482 0.0876 8.3167-2.9718 10.406-4.7188 0.9652-0.8069 2.478-1.7508 3.4062-2.0625 0.92824-0.31158 2.1201-0.89487 2.625-1.3125 0.50488-0.41764 1.8276-1.0236 2.9688-1.3438 1.1412-0.32017 2.7993-1.0521 3.6562-1.625 0.85693-0.57291 1.8063-1.0151 2.125-1 0.31878 0.0149 0.97499-0.25674 1.4375-0.5625 0.46252-0.30577 1.0574-0.52006 1.3438-0.5 0.28629 0.02 1.221-0.39192 2.0938-0.90625 1.338-0.78842 2.9784-1.2595 8.1875-2.375 1.0382-0.22229 5.3973-4.0596 7.0312-6.1875 1.452-1.891 5.8931-5.9012 11.125-10.094 3.0673-2.458 6.0302-6.2765 6.8125-8.8125 1.5122-4.9025 3.695-7.2319 7-7.4062 4.2473-0.22395 6.5913-1.5551 8.7188-4.9375 0.4526-0.71959 1.245-1.2492 1.9688-1.375 2.9933-0.52019 10.719-5.2692 14.031-8.625 2.5432-2.5766 5.5075-6.7084 6.875-9.5 6.4349-13.136 7.2589-16.077 5.9062-21.312-2.2643-8.7634-10.247-13.644-19.438-11.875-3.8696 0.74491-6.8556 2.5473-15.688 9.5625-1.6439 1.3058-3.2177 2.5049-3.5312 2.6562-1.3681 0.66051-6.6271 6.7651-8.3125 9.6562-1.6272 2.7912-3.7102 4.8875-4.7812 4.8125-0.46747-0.0328-5.1786 2.1439-7.25 3.3438-0.93574 0.54206-2.7273 1.1012-4.0312 1.2812-2.6196 0.3618-4.6013 1.0814-5.4375 1.9688-0.30116 0.31957-0.78376 0.55293-1.0938 0.53125-0.30999-0.0217-0.8081 0.36531-1.125 0.8125-0.31683 0.44715-1.5983 1.1738-2.8125 1.6562-1.2142 0.48249-2.2956 1.05-2.4375 1.25-0.14182 0.20003-1.2031 0.71818-2.3125 1.1562-1.1093 0.43806-2.5373 1.2287-3.1875 1.7812-2.5194 2.1413-3.2806 2.6511-5.125 3.4375-1.0493 0.44737-2.1381 1.1799-2.4688 1.5938-0.33063 0.41379-0.88344 0.74007-1.1875 0.71875-0.73544-0.0516-4.4086-2.9862-6.0938-4.8438-0.74047-0.81624-2.1052-1.9157-3.0312-2.4688-1.1307-0.67529-1.9285-1.5832-2.4062-2.7188-0.39122-0.92996-1.6107-2.5529-2.7188-3.625-1.108-1.072-3.4814-3.6105-5.2812-5.6562-1.8-2.0458-4.0325-4.371-4.9688-5.1562-2.0002-1.6777-2.1731-0.73743 1.6562-10.531 2.938-7.5142 4.5533-12.787 5.3438-17.75 0.36484-2.2908 0.82536-3.6608 1.8125-5.1875 1.6266-2.5155 2.5394-6.7448 2.4062-11.281-0.0919-3.1308 0.39611-5.5611 1.625-8.0625 2.3854-4.8557 3.164-9.1772 2.2812-12.594-0.70161-2.7155-0.70688-2.7398 1.9062-9.2812 1.7949-4.4932 3.0124-6.9016 3.875-7.7812 1.5488-1.5792 1.9388-2.8176 1.8125-5.4375-0.10347-2.1456-1.4374-5.8478-2.4688-6.8438-0.69156-0.66779-0.62056-3.6408 0.125-5.7188 0.25359-0.70685 1.4928-2.4815 2.75-3.9062s2.274-2.6761 2.2812-2.7812c7e-3 -0.10519 0.64615-1.3477 1.4062-2.75 0.7601-1.4023 1.9144-4.0751 2.5312-5.9688 0.61685-1.8936 2.0044-5.6666 3.0938-8.375 2.7138-6.7468 6.1257-15.902 7.8438-21.062 0.78684-2.3632 2.4763-6.554 3.75-9.3438 2.5933-5.6799 3.4942-9.3272 3.9375-15.812 0.67144-9.8219-2.4727-16.908-9.4375-21.219-2.6212-1.6222-2.8733-1.6621-7.25-1.9688-0.90219-0.0632-1.75-0.0918-2.5625-0.0625zm-228.19 94.188c-0.42111-0.0182-0.88704 0.2324-1.8438 0.90625-2.0269 1.4276-2.8525 3.5993-3.1875 8.5-0.45588 6.6688 1.162 9.1205 8.625 13.281 0.32625 0.18189 1.282 1.6647 2.125 3.3125 2.0209 3.9502 7.674 10.719 16.25 19.406 3.3308 3.3742 9.8422 12.85 10.594 15.406 0.61968 2.108 2.5326 4.3829 4.625 5.5312 1.7597 0.96579 6.1128 0.92498 8.5312-0.0937 4.6207-1.9464 8.0629-9.5801 8.125-18 0.0602-8.1596-3.676-14.286-12.344-20.156-2.1744-1.4725-4.3249-3.031-4.75-3.4688-1.4673-1.511-6.7026-5.2546-9.5312-6.8125-1.5606-0.85956-3.4047-2.1561-4.125-2.875-0.72034-0.71886-2.0061-1.774-2.875-2.375-0.86893-0.60099-1.9496-1.4421-2.375-1.875-0.42541-0.4329-2.1957-1.664-3.9375-2.75-4.5417-2.8317-5.2587-3.5495-5.625-5.4375-0.41642-2.1462-0.4665-2.1921-3.75-1.875-2.1793 0.21051-2.9816 0.15585-3.7188-0.3125-0.31715-0.20151-0.55984-0.30157-0.8125-0.3125z" fill="#f22"/>
   <path d="m262.19 175.09c-8.233-2e-3 -14.746 5.7048-16.094 14.375-0.60537 3.8939 0.0977 7.3181 3.7188 18 0.67404 1.9882 1.2762 3.8725 1.3125 4.2188 0.15976 1.5107 4.0977 8.5311 6.25 11.094 2.0777 2.474 3.37 5.1423 2.9375 6.125-0.1887 0.42895 0.25749 5.5515 0.6875 7.9062 0.19423 1.0638 0.14571 2.9931-0.125 4.2812-0.5444 2.588-0.55293 4.6633 0 5.75 0.19904 0.39138 0.2501 0.93431 0.125 1.2188-0.12519 0.28443 0.0299 0.89449 0.34375 1.3438 0.31389 0.44925 0.61179 1.8817 0.65625 3.1875 0.0442 1.3059 0.20332 2.5176 0.34375 2.7188 0.14035 0.201 0.2744 1.3703 0.3125 2.5625 0.0377 1.1921 0.32444 2.7952 0.625 3.5938 1.1648 3.0945 1.3826 3.9984 1.5 6 0.0668 1.1388 0.34722 2.424 0.625 2.875 0.28214 0.45091 0.40445 1.0649 0.28125 1.3438-0.29683 0.67488-4.2451 3.1348-6.5625 4.0938-1.0183 0.42144-2.5418 1.3463-3.375 2.0312-1.0174 0.83633-2.1136 1.2463-3.3438 1.3125-1.0075 0.0542-2.9917 0.66277-4.375 1.3438-1.3832 0.6809-4.5917 2.0903-7.125 3.0938-2.5334 1.0035-5.4448 2.2901-6.5 2.9062-2.2545 1.3162-1.4182 1.7864-9.3438-5.125-6.081-5.3026-10.533-8.5489-14.938-10.969-2.0331-1.1168-3.1463-2.0554-4.25-3.5-1.8186-2.3806-5.4975-4.6561-9.8125-6.0625-2.978-0.97065-5.0917-2.2174-7.0312-4.2188-3.7651-3.8848-7.5797-6.1148-11.094-6.4375-2.7929-0.25658-2.7876-0.26913-8.0625-4.9375-3.6232-3.2066-5.5258-5.141-6.0625-6.25-0.96353-1.991-1.9913-2.7968-4.5-3.5625-2.0544-0.62701-5.9643-0.63449-7.25 0-0.8622 0.42543-3.6397-0.6279-5.3438-2.0312-0.5797-0.47736-1.8022-2.2106-2.7188-3.875-0.91653-1.6644-1.7478-3.081-1.8438-3.125-0.0966-0.0423-1.093-1.061-2.1562-2.25s-3.2071-3.1237-4.7812-4.3438c-1.5742-1.22-4.631-3.8101-6.8125-5.75-5.4342-4.8325-12.91-11.14-17.188-14.5-1.9587-1.5385-5.3666-4.5466-7.5625-6.6875-4.4706-4.3588-7.5765-6.4554-13.531-9.0625-9.0183-3.9484-16.716-3.3503-23.125 1.75-2.412 1.9194-2.5461 2.1089-4.3125 6.125-2.913 6.6228-2.1363 11.364 2.9062 17.188 2.5724 2.9706 2.5788 2.9763 8.875 5.7812 6.0623 2.7008 8.0854 3.9066 10.469 6.3125 1.3092 1.3216 7.1874 4.7384 8.75 5.0938 0.60146 0.1368 2.2742 1.0193 3.7188 1.9375 10.288 6.539 16.243 9.8247 23.844 13.156 7.8549 3.4429 7.8561 3.4393 9 7.25 1.3441 4.4784 3.2968 8.1892 5.2812 10.031 0.78144 0.72553 1.575 1.6469 1.7812 2.0625 1.2127 2.4454 9.392 8.8841 19.031 14.969 2.4531 1.5484 4.6152 2.9628 4.8125 3.1562 0.21673 0.21227-0.22139 1.8641-1.0938 4.1562-1.218 3.199-1.4562 4.2811-1.4062 6.9375 0.0597 3.1532 0.0545 3.1513-2.1562 4.6875-4.4606 3.0995-5.6225 4.7127-8.875 11.969-3.5851 7.9986-3.8424 9.9058-1.9062 15.094 2.023 5.4211 4.2408 7.7014 9.875 10.219 2.5195 1.1257 4.9509 2.4374 5.4375 2.9375 0.48662 0.50024 1.2441 1.0875 1.6875 1.2812 1.2104 0.52999 1.7115 2.073 1.125 3.4062-0.42357 0.96309-1.2067 1.4156-4.375 2.5938-7.8039 2.9022-9.2596 6.2017-6.5 14.719 0.88524 2.721 1.0753 4.2626 0.84375 6-0.44144 3.3123-0.32186 5.1622 0.34375 6 0.3167 0.39848 0.48958 0.95847 0.375 1.2188-0.24013 0.54566 1.4798 4.0827 2.9688 6.125 1.1654 1.5986 1.1565 1.6498-0.40625 2.9375-2.0195 1.6638-4.3983 6.885-4.6562 10.188-0.37866 4.8494 1.4023 10.283 4.5938 13.969 0.83217 0.96106 2.1378 2.6439 2.9062 3.75 2.4793 3.5689 3.3903 4.2241 10.469 7.3438 12.88 5.6766 17.211 7.1976 20 7.0938 2.3486-0.0875 6.0764-1.5593 6.5312-2.5938 0.391-0.8889 2.1558-1.0455 6.125-0.5 5.0978 0.70049 9.57 0.36373 11.688-0.90625 0.51502-0.30891 2.0515-0.57823 3.4062-0.59375 1.3548-0.0156 3.5656-0.44432 4.9062-0.96875 1.8334-0.71717 2.7438-0.82301 3.625-0.4375 2.1838 0.95618 5.5648 1.4312 7.5625 1.0625 1.8892-0.34873 2.2856-0.26335 7.4375 1.8125 5.938 2.3927 7.3562 2.6008 12.438 1.75 2.3128-0.38734 2.9162-0.30169 8.3125 1.375 11.068 3.4389 12.67 3.8849 15.094 4.0625 2.9928 0.21919 6.9768-0.66893 13.031-2.875 6.0296-2.1971 7.8241-3.7406 11.469-9.8438 1.4502-2.4284 2.9294-4.8794 3.2812-5.4688 4.4198-7.4021 5.3504-12.736 3.625-20.812-0.91643-4.2895-0.56351-6.5316 2.5625-15.469 1.0147-2.9008 2.4017-7.4722 3.0625-10.156 1.4107-5.7301 2.6774-10.694 3.6875-14.438 0.68346-2.5329 0.76047-3.245 0.78125-6.5625 5e-3 -0.74126 0.28452-2.8905 0.59375-4.7812 0.81643-4.9933 0.75116-10.301-0.15625-13.094-0.43552-1.3405-1.0246-3.6337-1.2812-5.0625-0.25667-1.4288-0.77604-3.1452-1.1562-3.8438-0.86693-1.5932-0.98704-3.0456-0.4375-4.3438 0.60517-1.4277-0.03-8.8182-0.96875-11.375-0.43358-1.1809-0.77005-2.9585-0.75-3.9375 0.0202-0.97891-0.15241-2.2588-0.375-2.875-0.22262-0.61632-0.33401-2.1303-0.25-3.3125 0.084-1.1822-0.0627-2.9374-0.3125-3.9375-0.24988-1-0.34088-2.0802-0.21875-2.375 0.12176-0.29498 0.10038-0.96133-0.0312-1.5-0.13157-0.53855-0.14677-1.1747-0.0312-1.4375 0.11563-0.26269 0.0643-1.3173-0.125-2.3125-0.29034-1.5257-0.17767-3.2202 0.53125-8.5 0.14138-1.0524-2.0175-6.431-3.4688-8.6875-1.2896-2.0052-3.5703-7.566-5.75-13.906-1.278-3.7172-3.8772-7.7512-6-9.3438-4.104-3.0788-5.5142-5.9239-4.5625-9.0938 1.2234-4.0734 0.74663-6.7304-1.7188-9.875-0.5245-0.66899-0.81343-1.62-0.6875-2.3438 0.52105-2.9931-1.3347-11.843-3.375-16.094-1.5666-3.2638-4.3966-7.4889-6.5625-9.7188-10.191-10.492-12.709-12.256-18.094-12.75-0.56333-0.0517-1.1074-0.0624-1.6562-0.0625zm-247.47 69.062c-1.6339 0.08-3.1638 0.37289-4.75 0.84375-8.2428 2.4468-11.346 12.629-6.1875 20.344 2.3188 3.468 3.7261 4.4772 9.4062 6.6875 2.6769 1.0417 7.4802 2.9197 10.688 4.1875 3.2073 1.2678 7.2044 2.5715 8.9062 2.9375 1.702 0.36564 4.4778 1.3009 6.1562 2.0312 2.5948 1.1294 11.411 3.2714 12.719 3.0938 0.19903-0.0269 3.4812 1.1355 7.3125 2.5938 5.8889 2.2414 7.3656 2.6449 9.4688 2.6875 2.9613 0.0601 12.219 3.8788 18.031 7.4375 2.8209 1.727 4.0271 2.2456 8.4688 3.5625 2.8515 0.84547 8.6773 2.9601 12.938 4.6875 7.7457 3.1408 7.7027 3.1146 11.062 2.7188 5.8572-0.68993 5.6579-0.53321 8.5-5.6562 1.3667-2.4634 2.5153-4.5077 2.5625-4.5312 0.35644-0.17978-0.75566-1.8264-1.4375-2.125-0.60827-0.26629-1.1-1.37-1.7188-3.875-1.3114-5.3096-2.0984-5.987-13.094-10.844-8.6133-3.8045-8.6267-3.78-10.844-3.5312-1.5889 0.17865-2.4919 0.0496-3.125-0.4375-0.52064-0.40063-1.6236-0.71117-2.6875-0.75-1.3843-0.0505-3.1583-0.65576-7.6562-2.625-5.5227-2.418-5.9473-2.6507-7.25-4.2812-1.365-1.7086-1.5211-1.8098-10.469-5.7188-4.9892-2.1796-12.244-5.1465-16.125-6.5938-3.8812-1.4477-12.141-4.5617-18.375-6.9375-11.692-4.4562-17.598-6.1459-22.5-5.9062zm1.4375 83.281c-4.423 0.0299-9.809 2.226-14.812 6.0938-2.6476 2.0466-4.6884 7.3224-4.0938 10.531 0.9971 5.3815 5.7019 8.7357 14.469 10.375 2.1476 0.40163 5.8487 1.4213 8.25 2.25 4.8985 1.6912 6.8424 2.0941 11.188 2.4062 2.7906 0.20051 4.5123 0.15771 10.656-0.21875 1.2898-0.079 6.3792 0.0223 11.312 0.21875 4.9334 0.19679 9.9813 0.3975 11.219 0.4375 1.2373 0.04 4.9684 0.41524 8.2812 0.84375 6.6302 0.85787 17.244 0.59953 22.656-0.5625 4.1134-0.8832 4.6049-0.90273 10.656-0.40625 12.244 1.0046 13.822 0.89748 17.781-1.25 1.2345-0.66967 2.3953-1.6112 2.5938-2.0625 0.84851-1.917-5.0841-10.478-7.25-10.469-1.3216 6e-3 -8.7592-0.73281-12.344-1.2188-1.9425-0.2636-2.5682-0.50224-3.1875-1.1875-0.96526-1.0681-4.4919-1.7788-10.25-2.0312-8.8928-0.38992-18.692-1.6449-20.375-2.625-1.4425-0.84028-5.1916-1.8407-10.031-2.6562-0.93477-0.15716-3.6791-0.15438-6.0938 0-4.3902 0.28062-4.3817 0.27011-9.5625-2.2812-8.2923-4.0835-19.303-6.2672-31.062-6.1875zm113.75 77.438c-5.1328-0.0654-10.283 1.941-16.094 6.1875-2.1202 1.5495-4.3194 3.0602-4.875 3.3125-1.9177 0.87092-7.1723 4.5198-9.5938 6.6562-1.3361 1.1788-3.1739 2.471-4.0938 2.9062-0.91989 0.43528-2.3595 1.2912-3.2188 1.9062-0.8591 0.61493-2.0426 1.3395-2.5938 1.5938-0.55111 0.25423-2.3271 1.5084-3.9375 2.7812-4.199 3.3188-5.0992 3.7614-7 3.4688-2.1608-0.33274-2.1899-0.29151-3 2.9062-0.53778 2.1223-0.87267 2.8705-1.5625 3.4062-0.79144 0.61457-0.84171 0.88267-0.34375 2.6875 0.65944 2.3899 2.4065 3.8736 6.9062 5.8438 6.1233 2.6809 9.0011 2.0261 15.438-3.5938 0.28142-0.24573 2.008-0.63793 3.8438-0.875 4.4005-0.56837 12.677-3.6424 23.75-8.7812 4.3007-1.9959 15.402-4.9059 18.062-4.75 2.1935 0.12849 4.9938-0.88693 6.7812-2.4688 1.5032-1.3302 2.9235-5.4733 2.7812-8.0938-0.27189-5.0065-6.2829-10.818-14.188-13.719-2.3938-0.87871-4.7294-1.3453-7.0625-1.375z" fill="#80cc11"/>
   <path d="m615.16 175.91c-1.4201 5e-3 -3.1791 0.35571-5.5312 1.0625-6.4016 1.9236-8.1426 4.2682-9.4062 12.719-0.0554 0.36943-1.0988 1.8179-2.3438 3.1875-2.9847 3.2834-7.3296 10.944-12.438 22.031-1.9838 4.3063-8.5598 13.739-10.688 15.344-1.7544 1.3228-3.2253 3.9183-3.5625 6.2812-0.28364 1.9872 1.3193 6.0332 3.125 7.9375 3.4499 3.6383 11.786 4.1905 19.688 1.2812 7.6574-2.8193 12.093-8.476 14.531-18.656 0.61164-2.5538 1.3338-5.1354 1.5938-5.6875 0.89694-1.9056 2.539-8.085 3-11.281 0.25439-1.7634 0.7998-3.9788 1.2188-4.9062 0.41884-0.92746 0.96246-2.5063 1.2188-3.5312 0.25618-1.025 0.68232-2.3243 0.9375-2.875 0.2552-0.55067 0.78506-2.6122 1.1875-4.625 1.0494-5.2483 1.456-6.2106 3.0938-7.2188 1.8613-1.1461 1.8602-1.1639 0.40625-4.125-0.96507-1.9653-1.1785-2.7701-1-3.625 0.20485-0.98086 0.0487-1.2287-1.5-2.2812-1.0252-0.69686-2.1112-1.0354-3.5312-1.0312zm119.09 24.43c-3.1787-8e-3 -6.8957 1.2584-11.25 3.75-1.8963 1.085-5.3834 2.7326-7.75 3.6562-4.8274 1.8844-6.581 2.7984-10.094 5.375-2.2559 1.6548-3.5316 2.7961-7.9688 7.0625-0.9314 0.89558-4.8952 4.1421-8.7812 7.1875-3.8861 3.0455-7.8439 6.1665-8.8125 6.9375-0.96862 0.77096-4.0422 2.8995-6.8438 4.7188-5.6071 3.641-13.504 10.703-16.875 15.094-2.5619 3.3372-2.943 3.6775-7.875 7.2188-9.9792 7.1653-11.125 8.2683-12.75 12.469-0.50685 1.3098-0.79733 2.7776-0.65625 3.25 0.59511 2.0102 10.668 4.6909 12.312 3.2812 1.0034-0.8601 7.1418-5.0796 10.188-7.0312 1.6506-1.0578 2.3031-1.3396 3.2188-1.2188 1.4273 0.18854 4.5745-1.5565 9.125-5.0938 7.0278-5.463 15.302-10.813 17.219-11.156 1.6433-0.29421 5.1282-1.9866 9.3438-4.5 0.8141-0.48544 2.9166-2.2559 4.6562-3.9375 3.1631-3.0574 3.1502-3.0568 8.75-4.4688 8.9627-2.2599 18.811-7.729 27.719-15.406 3.3504-2.8877 5.9744-8.0311 7.2812-14.219 0.6915-3.2742-1.1248-8.5966-3.6562-10.656-1.8574-1.5112-4.0277-2.3059-6.5-2.3125zm-162.78 59.188c-1.8163 0.0957-3.977 0.66744-8.0312 1.875-13.49 4.0179-17.817 5.6767-19.875 7.5625-1.7327 1.5879-3.6046 5.1047-3.2812 6.1875 0.27789 0.93041-0.96632 2.1883-4.3438 4.3438-4.3377 2.7683-7.4906 5.9423-8.2812 8.2812-0.1923 0.56903-1.1966 1.7357-2.2188 2.625-1.0222 0.88936-2.4433 2.7009-3.125 3.9688-0.93228 1.734-1.5163 2.3794-2.4375 2.6562-2.2831 0.68603-5.2168 2.5189-6.5 4.0938-1.2135 1.4894-1.5428 1.6509-6.8125 3.4062-6.0739 2.0233-7.3048 2.8106-10.625 6.75-1.5112 1.7931-2.0214 2.0947-7.2188 4.3125-10.66 4.5487-12.164 5.2844-14.125 6.7188-2.4222 1.7715-4.8786 4.9914-8.0625 10.594-3.1707 5.5793-3.5513 7.927-2.375 14.938 0.46805 2.7894 0.94893 5.6356 1.0625 6.3125 1.4271 8.5024 4.1729 13.183 10.719 18.219 3.4766 2.6744 4.624 4.5724 8.0312 13.406 1.1059 2.8672 3.0462 7.2458 4.2812 9.7188 2.6368 5.2794 4.8759 9.931 6.5312 13.438 1.1199 2.3724 1.4921 2.959 3.625 5.5 0.47671 0.56777 1.6983 2.3592 2.6875 4 2.6121 4.3331 6.0937 8.3353 8.5938 9.875 1.2 0.7391 3.0978 2.1089 4.2188 3.0312 1.121 0.92228 2.6328 1.9015 3.375 2.1875 1.6925 0.65227 2.7653 1.6549 3.1875 3 0.46377 1.4797 5.7224 6.7227 8.0938 8.0625 1.0953 0.61891 2.4749 1.7412 3.0938 2.5 0.61867 0.75888 1.5875 1.6434 2.1562 1.9688 0.56882 0.32526 1.642 1.3574 2.3438 2.3125 0.70187 0.95512 1.9744 2.2437 2.8125 2.8438 0.83816 0.60006 1.5896 1.3526 1.6875 1.6562 0.0984 0.3036 0.5509 0.79989 1 1.125 0.44911 0.32509 0.88655 0.81877 0.96875 1.0938 0.0821 0.27499 0.77356 1.0207 1.5625 1.6562 1.2094 0.97435 2.2452 2.3308 5.125 6.8125 0.57394 0.89329 5.714 3.6271 8.2812 4.4062 2.2814 0.69236 7.6076 3.4251 13.375 6.8438 3.3813 2.0043 7.9761 3.3804 10.625 3.2188 5.1209-0.31256 8.047 0.93727 9.375 3.9688 1.7064 3.8959 3.7722 5.6387 7.6875 6.4375 0.83289 0.16997 1.6272 0.71081 2 1.3438 1.5417 2.6179 8.7234 8.1766 13.031 10.094 3.3075 1.472 8.2181 2.8293 11.312 3.125 14.561 1.3928 17.609 1.0796 22.031-2.0312 7.4031-5.2074 9.1447-14.366 4.25-22.344-2.0609-3.3588-4.8223-5.5196-14.5-11.312-1.8013-1.0782-3.4666-2.1662-3.7188-2.4062-1.1002-1.0475-8.6379-3.7854-11.938-4.3438-3.1856-0.53908-5.9115-1.7525-6.2188-2.7812-0.13408-0.44902-3.8034-4.1094-5.6562-5.625-0.83707-0.68467-2.0282-2.187-2.6562-3.3438-1.2618-2.324-2.6249-3.9052-3.75-4.375-0.40524-0.1692-0.81725-0.54599-0.90625-0.84375-0.0889-0.29776-0.56359-0.64227-1.0938-0.78125-0.53017-0.13892-1.7143-1.065-2.5938-2.0312-0.87953-0.96628-1.7629-1.8127-2-1.875-0.23715-0.0622-1.1054-0.8037-1.9062-1.6875-0.80097-0.88376-2.0662-1.93-2.8125-2.3438-2.8918-1.6031-3.6141-2.1448-5-3.5938-0.78852-0.82433-1.8399-1.6489-2.3438-1.8125-0.50377-0.16358-1.0066-0.52045-1.0938-0.8125-0.21101-0.70642 1.1993-5.1746 2.3438-7.4062 0.50291-0.98062 1.0901-2.6572 1.2812-3.7188 0.23352-1.2961 0.79319-2.3402 1.6875-3.1875 0.73238-0.69386 1.8247-2.429 2.4375-3.8438 0.61271-1.4147 2.1573-4.5321 3.4375-6.9375 1.2801-2.4055 2.6575-5.3158 3.0625-6.4688 0.86511-2.4631-0.0777-2.2883 10.438-2.1562 8.0675 0.10127 13.577-0.24071 18.5-1.25 2.2723-0.46586 3.7233-0.51072 5.5-0.125 2.9273 0.63574 7.1765 5e-3 11.375-1.7188 2.8975-1.1894 5.351-1.6123 8.125-1.3438 5.3848 0.52103 9.7388-0.25103 12.625-2.2812 2.294-1.6136 2.2698-1.6401 9.3125-1.5 4.8374 0.0963 7.5915 0.3777 8.7188 0.875 2.0236 0.89281 3.2802 0.85402 5.6875-0.1875 1.9715-0.85302 4.9626-3.4026 5.5312-4.7188 0.3812-0.88255 3.1988-1.9028 5.4062-1.9375 0.7507-0.0118 2.8172 0.54436 4.5938 1.2188 1.7764 0.67437 3.3365 1.1866 3.4375 1.1562 0.1009-0.0304 1.4822 0.12663 3.0625 0.34375 1.5801 0.21712 4.4794 0.30883 6.4688 0.21875 1.9895-0.0901 5.9876-0.0962 8.9062-0.0312 7.2702 0.16191 17.065 0.14824 22.5-0.0625 2.4889-0.0965 7.0342-0.0213 10.094 0.1875 6.2294 0.42519 9.9308-4e-3 16.156-1.875 9.4284-2.8331 14.952-8.2754 16.531-16.312 0.5944-3.0247 0.568-3.2648-0.6875-7.4688-2.0704-6.9326-5.7614-9.9859-13.375-11.156-3.884-0.59704-3.8863-0.62865-10.5 1.3125-6.3681 1.869-8.657 2.258-12.031 1.9688-1.8535-0.15892-8.6106 1.0399-10.031 1.7812-0.5468 0.28537-2.3673 0.70138-4.0625 0.9375-12.073 1.6816-18.739 3.0211-26.688 5.4062-8.2145 2.4647-8.1916 2.4749-11.531 0.3125-3.9249-2.5413-7.8575-4.1006-10.562-4.2188-1.0653-0.0466-2.2612-0.25435-2.6875-0.4375-2.5079-1.0775-12.871-0.67035-24.156 0.9375-2.8719 0.40917-5.443 0.73844-5.7188 0.71875-0.30263-0.0214-1.0552-1.5635-1.875-3.875-1.1442-3.2262-1.6787-4.1961-3.4375-6.1875-2.0878-2.3638-2.0956-2.3663-1.4062-4.9688 1.3908-5.2505 1.2532-7.2713-0.96875-14.906-2.4493-8.4161-3.5083-9.989-8.3438-12.688-5.0528-2.8198-8.1707-3.169-14.094-1.4375-2.6486 0.77429-5.3991 1.3782-6.0938 1.3125-0.69472-0.0658-1.6304-0.0142-2.0938 0.125-1.2654 0.38022-2.6457-0.44802-3.0625-1.8438-0.30109-1.0081 3e-3 -1.9252 1.6562-4.875 4.0658-7.2658 3.0566-10.705-4.5625-15.406-2.4342-1.502-3.6137-2.5264-4.5625-4-1.8092-2.8095-3.1066-4.1679-4.1562-4.375-0.49932-0.0985-0.94997-0.38369-1.0312-0.65625-0.17055-0.57118-3.8241-2.1896-6.2812-2.7812-1.9234-0.46304-1.9192-0.47543-1.5625-2.4688 0.46085-2.5758-1.1198-8.1293-3.0625-10.812-2.8525-3.9399-7.7127-6.9156-12.531-7.6562-1.2566-0.19312-3.3543-0.62379-4.6562-0.96875-1.5752-0.4174-2.7054-0.65923-3.9062-0.6875-0.25017-6e-3 -0.52178-0.0137-0.78125 0zm210.65 6.59c-1.7636 0.0809-3.6942 0.62769-6.8438 1.7188-2.7142 0.94022-7.6103 2.6073-10.875 3.7188-3.2648 1.1115-7.1852 2.7078-8.7188 3.5312-1.5336 0.82364-4.217 1.938-5.9688 2.4688-2.7085 0.82028-10.806 4.8615-11.688 5.8438-0.1343 0.14952-3.4178 1.4106-7.2812 2.7812-5.9384 2.1067-7.3075 2.7327-8.9375 4.0625-2.2951 1.8723-11.829 4.9464-18.562 6-3.2677 0.51133-4.513 0.90767-8.75 2.7812-2.7201 1.2028-8.5105 3.3692-12.875 4.8125-7.9357 2.6242-7.9466 2.6473-10.25 5.125-4.0156 4.3195-3.9341 4.0372-2.7812 9.7812 0.55438 2.762 0.98925 5.0766 0.96875 5.125-0.15513 0.36787 1.7871 0.90166 2.5 0.6875 0.63595-0.19111 1.7185 0.33597 3.8125 1.8438 4.4383 3.1958 5.477 3.1717 17-0.25 9.0265-2.6804 9.0032-2.6557 10.531-4.2812 1.0951-1.1648 1.8584-1.6798 2.6562-1.7188 0.6562-0.032 1.6954-0.4967 2.5312-1.1562 1.0873-0.85815 2.829-1.5245 7.5312-2.9375 5.7739-1.735 6.2638-1.8673 8.3125-1.4688 2.1466 0.41757 2.3074 0.41115 11.656-2.4062 5.2129-1.571 12.699-4.0266 16.594-5.4375 3.8947-1.4109 12.212-4.3661 18.5-6.5938 15.726-5.5709 20.417-8.2677 24.031-13.812 4.6952-7.2031 0.427-16.963-8.5-19.5-1.5049-0.42758-2.6538-0.68305-3.8438-0.71875-0.24794-7e-3 -0.49805-0.0115-0.75 0z" fill="#f90"/>
   <path d="m243.59 426.44c-2.1555-0.0173-5.877 0.38739-7.8125 0.9375-2.2932 0.65182-8.2376 1.2553-14.938 1.5-3.9282 0.14359-8.5783 1.431-10.719 3-4.1378 3.0331-7.2743 3.6124-10.031 1.7812-3.5427-2.3535-6.2438-2.6961-9.9688-1.25-0.79244 0.30765-1.7503 0.29934-2.4062-0.0312-2.7128-1.3677-11.715-2.1556-16.375-1.4375-3.5781 0.55121-8.4248 2.0437-11.188 3.4688-13 6.7056-15.432 8.6161-17.469 13.625-3.4092 8.3845 0.099 17.032 8.5312 21.094 3.5503 1.7101 7.0081 2.0508 18.281 1.6875 2.0983-0.0674 4.0956-0.0653 4.4375 0 1.4921 0.28576 9.3603-1.4971 12.438-2.8125 2.9708-1.2699 5.904-1.7305 6.7188-1.0312 0.35566 0.30512 5.3717 1.3839 7.75 1.6562 1.0744 0.12301 2.9084 0.77317 4.0625 1.4062 2.3184 1.272 4.2996 1.8386 5.5 1.625 0.43233-0.0769 0.98296 0.0165 1.2188 0.21875 0.23587 0.20232 0.8852 0.23243 1.4062 0.0625 0.52104-0.16995 1.9564-0.0245 3.2188 0.3125 1.2624 0.33688 2.4857 0.57593 2.7188 0.5 0.23317-0.076 1.3795 0.0962 2.5312 0.40625 1.1517 0.30998 2.7736 0.52445 3.625 0.46875 3.2994-0.21612 4.2068-0.18766 6.1562 0.28125 1.1092 0.2667 2.4253 0.38499 2.9375 0.25 0.51217-0.13492 1.1439-0.0739 1.375 0.125 0.55961 0.47999 1.7552 4.9726 2 7.4688 0.10754 1.0967 0.52376 2.8477 0.9375 3.8438 0.50486 1.2165 0.63754 2.3661 0.34375 3.5625-0.24066 0.9798-0.24995 3.041 0 4.5625 0.24992 1.5214 0.65045 4.9719 0.875 7.6875 0.22464 2.7155 0.62315 5.905 0.90625 7.0938 0.60482 2.5396 1.2899 1.8603-7.625 7.4375-6.84 4.2791-11.249 7.6129-14.844 11.125-1.6592 1.6212-2.8596 2.4259-4.5625 3.0625-2.8061 1.049-6.0263 3.9042-8.625 7.625-1.7936 2.5678-3.6467 4.194-6.125 5.4688-4.8107 2.4748-8.0459 5.5124-9.375 8.7812-1.0564 2.5981-1.0323 2.5891-7.0312 6.2812-4.1204 2.5363-6.5642 3.7772-7.7812 3.9688-2.185 0.34392-3.2575 1.0718-4.7188 3.25-1.1965 1.7839-2.3276 5.5542-2.0938 6.9688 0.15682 0.94838-1.6623 3.3081-3.5 4.5312-0.62516 0.41612-2.6412 1.0751-4.5 1.4688-1.8588 0.39382-3.4628 0.79435-3.5312 0.875-0.0686 0.0798-1.3035 0.70268-2.75 1.375-1.4465 0.67214-3.9692 2.1606-5.5938 3.3125-1.6245 1.1521-4.979 3.3196-7.4688 4.8438-6.2022 3.7967-14.387 9.1326-18.844 12.25-2.0411 1.4275-5.9075 3.802-8.5938 5.2812-5.4692 3.0125-8.3699 5.4026-12.594 10.344-6.397 7.4832-8.1132 15.011-5.0938 22.625 1.1363 2.8655 1.2948 3.081 4.625 5.9375 5.4916 4.7106 10.276 5.3219 17.312 2.1875 3.5897-1.5991 3.5815-1.6332 8.0938-6.8438 4.3448-5.0167 6.0994-6.5744 9.0938-8.1562 1.6449-0.8691 6.6437-5.5142 7.4375-6.9062 0.30553-0.5358 1.6394-1.8842 2.9375-3 9.2445-7.9456 14.074-12.694 19.469-19 5.5753-6.5165 5.5839-6.5117 9.5625-6.5 4.6758 0.014 8.8173-0.761 11.156-2.125 0.92103-0.5374 2.0423-1.0488 2.5-1.125 2.6921-0.4505 11.191-6.3867 19.812-13.844 2.194-1.8978 4.164-3.5544 4.4062-3.6875 0.26602-0.1457 1.7163 0.71852 3.6562 2.2188 2.7076 2.0945 3.7247 2.6205 6.2812 3.3438 3.0347 0.85866 3.0158 0.87594 3.8438 3.4375 1.6706 5.1683 2.876 6.812 8.875 12.031 6.6129 5.7533 8.3795 6.5024 13.906 6.1562 5.775-0.3617 8.5489-1.7773 12.594-6.4375 1.8088-2.0841 3.8176-4.0542 4.4375-4.375 0.61981-0.3204 1.3733-0.8818 1.6875-1.25 0.85857-1.0042 2.4882-1.0733 3.5938-0.125 0.79863 0.6849 1.0112 1.5948 1.2188 4.9688 0.51096 8.3103 3.2361 10.699 12.188 10.531 2.8597-0.053 4.4047 0.18005 6 0.90625 3.0414 1.384 4.8489 1.8 5.8438 1.4062 0.47312-0.1834 1.0342-0.1852 1.25 0 0.45246 0.3882 4.3632-0.19995 6.75-1.0312 1.8682-0.651 1.9091-0.65065 2.6875 1.2188 1.0057 2.4156 5.3209 6.2006 8.4062 7.4062 4.5304 1.7704 10.234 1.64 14.688-0.34375 1.1612-0.5176 3.1558-1.2735 4.4375-1.6875 4.135-1.3361 5.022-2.0074 10.062-7.875 9.1719-10.676 11.914-14.395 12.625-17.094 0.59821-2.273 0.26409-6.2329-0.59375-6.9688-0.73699-0.63214-0.39328-2.3913 1.2812-6.0312 2.1506-4.6748 3.1316-9.0427 2.5312-11.438-0.1461-0.5826 0.0589-2.1366 0.4375-3.4375 0.37852-1.3008 0.58131-3.5336 0.46875-4.9688-0.15398-1.9627 4e-4 -2.8625 0.625-3.5938 1.549-1.8121 3.0227-4.9189 3.25-6.9375 0.2149-1.9091 0.39256-2.2667 3.875-6.5938 4.0139-4.9875 4.6199-6.2656 5.2812-11.375 0.30095-2.3255 0.54736-2.8856 3.7188-7.5625 6.5045-9.5922 7.4077-11.014 8.2812-13.281 1.0789-2.8002 1.3843-6.847 1.0312-13.281-0.3515-6.4077-1.312-8.5838-6.0938-13.844-1.9027-2.0927-3.8195-4.2421-4.2812-4.75-5.7998-6.3788-10.646-8.8059-18.875-9.5-4.3707-0.36872-6.3555-1.3822-14-6.9688-2.4811-1.8132-6.4984-4.432-8.875-5.8438-5.0736-3.0137-9.4609-5.6964-12.75-7.75-2.2253-1.3895-2.8628-1.6731-6.0312-2.6562-0.70803-0.21971-2.7181-1.0926-4.4375-1.9375-4.5411-2.2312-9.6269-3.7137-12.562-3.6562-1.4091 0.0276-3.7458-0.0806-5.1875-0.25-1.4418-0.16922-3.2523-0.19224-4.0312-0.0312-1.7762 0.36691-3.1985 0.12171-4.2812-0.78125-1.1904-0.99364-8.4683-2.5622-11.188-2.4062-1.256 0.072-3.0378-0.10275-3.9688-0.40625-0.93093-0.30351-2.2207-0.53402-2.875-0.5-0.65436 0.0341-2.1118-0.2951-3.2188-0.71875-1.107-0.42367-2.8455-0.79249-3.875-0.84375-1.0295-0.0512-2.0659-0.26628-2.3125-0.46875-0.24688-0.20221-0.91511-0.37587-1.4688-0.40625-0.55359-0.0305-1.1571-0.21947-1.375-0.40625-0.21783-0.18684-1.2427-0.42349-2.25-0.53125-1.5442-0.16519-3.1535-0.75725-8-2.9688-0.24149-0.1102-0.7815-0.18175-1.5-0.1875zm-22.75 185.12c-0.58813 0.028-1.7622 0.48185-2.125 0.90625-0.43147 0.5043-1.642 0.6355-4.2188 0.5-5.4616-0.2867-6.3472 0.29495-14.188 9.4062-6.1416 7.1373-6.1254 7.1188-6.5312 9.3125-0.29131 1.572-0.66255 2.4106-1.3125 2.875-0.53443 0.3817-1.1539 1.3372-1.5 2.3438-0.45027 1.31-1.5594 2.8616-4.75 6.5938-3.9175 4.5827-4.2489 4.8832-6.1875 5.6562-2.0314 0.8101-2.1926 0.948-8.5312 8.375-3.5345 4.1414-8.4881 10.206-11 13.5-2.5124 3.2935-7.885 10.287-11.969 15.562-10.212 13.193-12.71 18.006-12.75 24.625-0.0522 8.5981 8.8072 14.508 17.688 11.812 3.9918-1.212 5.3605-2.2689 9.125-7.0625 1.7741-2.259 4.9492-6.2991 7.0938-9 2.1446-2.701 4.6244-6.134 5.4688-7.6562 0.84411-1.5226 2.4699-3.9498 3.6562-5.3438 1.8342-2.1552 6.4465-9.916 6.6562-11.219 0.0314-0.1989 2.1172-3.0073 4.625-6.25 3.8548-4.9844 4.661-6.2499 5.3125-8.25 0.91729-2.8162 7.2818-10.596 12.375-15.125 2.4716-2.1978 3.2937-3.1948 5.8438-7.0625 1.637-2.4833 5.36-7.4564 8.25-11.031 5.2545-6.5001 5.2156-6.4826 5.8125-9.8125 1.0405-5.8053 1.1395-5.5427-2.9375-9.75-1.9604-2.023-3.5534-3.6982-3.5625-3.75-0.0172-0.098-0.1477-0.16565-0.34375-0.15625zm121.44 15.156c-4.733 0.072-10.875 3.931-15.312 9.8125-4.915 6.5135-5.5814 13.65-2.125 23.531 0.86708 2.4787 1.6698 5.0201 1.75 5.625 0.27657 2.0878 2.2525 8.1875 3.5938 11.125 0.74003 1.6208 1.4756 3.7746 1.625 4.7812 0.14939 1.0066 0.53593 2.6556 0.875 3.6562 0.33896 1.0009 0.66672 2.2737 0.75 2.875 0.0832 0.6012 0.78089 2.6834 1.5312 4.5938 1.9566 4.9817 2.1132 5.9536 1.2812 7.6875-0.94587 1.9711-0.91844 2.0463 1.9062 3.75 1.8747 1.1308 2.5005 1.6843 2.8125 2.5 0.35834 0.9358 0.62826 1.0143 2.5 1.0625 2.4784 0.063 4.402-1.1724 7.5938-4.9062 4.3434-5.0809 4.5088-8.0216 1-15.812-0.15337-0.3405-0.0249-2.1121 0.28125-3.9375 0.73392-4.376 0.2021-13.13-1.5-25.219-0.66107-4.695-0.23408-16.218 0.6875-18.719 0.75994-2.0617 0.58837-5.0177-0.40625-7.1875-0.8364-1.8247-4.3574-4.3752-6.9062-5-0.60871-0.1491-1.2614-0.22885-1.9375-0.21875zm-68.03 5.09c-3.3301 0.1124-9.9959 2.5326-10.5 4.2188-0.37862 1.2662-3.2129 8.18-4.7188 11.469-0.81633 1.7824-1.2581 2.3565-2.0938 2.75-1.3023 0.6134-2.9926 3.7507-4.9062 9.1875-2.9553 8.3963-7.011 17.393-8.4375 18.719-1.223 1.1364-3.2518 4.4496-5.4375 8.8438-0.42213 0.8488-1.2278 3.4572-1.7812 5.8125-1.0063 4.2825-1.023 4.2833-4.9688 8.5-6.3155 6.7492-11.599 16.662-14.938 27.938-1.2556 4.2412-0.68195 10.025 1.5625 15.938 1.1897 3.1277 5.6005 6.606 8.8438 6.9688 5.4392 0.6084 10.042-2.8993 14.156-10.812 1.0079-1.9384 3.041-5.1926 4.5312-7.25 3.0408-4.1963 4.002-5.9328 5.5625-10 1.0021-2.6121 1.4512-4.2926 2.875-10.281 0.2989-1.2571 1.879-6.0864 3.5-10.75 1.6208-4.6636 3.2899-9.4525 3.6875-10.625 0.3976-1.1724 1.8154-4.6108 3.1875-7.6562 2.746-6.0956 5.6029-16.327 6.0625-21.844 0.3494-4.1927 0.45529-4.6663 2.6875-10.312 4.5166-11.425 4.874-12.963 3.9688-17.375-0.28243-1.3757-0.81329-2.7728-1.1875-3.0938-0.29776-0.2565-0.88777-0.36955-1.6562-0.34375z" fill="#09d"/>
   <path d="m475.34 434.59c-2.7837 0.0403-5.185 0.88292-9.1562 2.875-2.5282 1.2682-5.1053 2.5985-5.7188 2.9062-7.7059 3.8661-11.364 7.8558-14.25 15.594-1.5329 4.1096-3.06 5.769-10.5 11.625-2.4148 1.9007-6.0001 5.0294-8 6.9375-4.2696 4.0737-8.0421 7.5423-10.906 10.156-1.9377 1.7685-2.3867 2.37-4.1875 5.1562-0.40232 0.62268-1.7542 2.2593-3.0312 3.6875-3.3724 3.7717-6.1704 8.3138-6.9062 11.156-0.35314 1.3644-1.1047 3.5635-1.6562 4.9062-0.55151 1.3428-1.0388 3.0816-1.0938 3.875-0.12532 1.8095-0.77622 3.1069-1.9375 3.9062-1.2777 0.87862-4.7299 7.4644-5.3125 10.125-0.26914 1.229-0.95685 2.9041-1.5 3.7188-0.54321 0.81461-1.1065 2.0169-1.25 2.6562-0.14354 0.63929-0.825 1.9232-1.5312 2.875-0.70632 0.95192-1.5482 2.5536-1.875 3.5312-0.32683 0.97768-0.80108 1.9109-1.0625 2.0938-0.26121 0.18335-0.60273 0.75636-0.78125 1.2812-0.17847 0.525-0.54266 1.0593-0.78125 1.2188-0.23863 0.15939-0.71856 1.0902-1.0938 2.0312-0.57526 1.4426-1.5954 2.8039-5.0312 6.875-0.68478 0.81149-1.792 6.536-1.7812 9.2188 0.01 2.3842-1.0238 8.2631-2.5938 14.781-0.92044 3.8214-0.93408 8.641 0 11.125 1.8057 4.8022 1.5377 7.9638-0.96875 10.125-3.2211 2.7775-4.2949 5.2729-3.9062 9.25 0.0826 0.8461-0.161 1.77-0.65625 2.3125-2.0482 2.2438-5.248 10.725-5.8125 15.406-0.43341 3.5942-0.28405 8.6742 0.34375 11.719 2.954 14.326 4.1003 17.157 8.375 20.469 7.1555 5.5428 16.441 4.5256 22.625-2.5 2.6036-2.9581 3.8742-6.2336 6.5625-17.188 0.50039-2.0388 1.0323-3.9385 1.1875-4.25 0.67736-1.36 1.0936-9.4008 0.65625-12.719-0.42232-3.2032-0.0805-6.1538 0.8125-6.75 0.38967-0.2603 2.7843-4.8144 3.6875-7.0312 0.40797-1.0017 1.4855-2.6218 2.4062-3.5625 1.8498-1.8898 2.9759-3.6302 3.0938-4.8438 0.0424-0.4371 0.27282-0.92105 0.53125-1.0938 0.25836-0.1726 0.46073-0.765 0.4375-1.3125-0.0232-0.5475 0.49159-1.9064 1.1562-3.0312 0.66469-1.1249 1.1978-2.2551 1.1875-2.5-0.0104-0.245 0.48476-1.287 1.0938-2.3125 0.60891-1.0256 1.2617-2.5401 1.4375-3.375 0.68115-3.2354 0.96061-4.0926 1.9375-5.8438 0.55581-0.99591 1.0231-2.2516 1.0312-2.7812 8e-3 -0.52954 0.215-1.1123 0.46875-1.2812 0.61306-0.40987 5.3116-0.34354 7.7812 0.0937 1.0852 0.19223 2.8355 0.25478 3.9062 0.125 1.3075-0.15821 2.4584 0.0201 3.5312 0.625 0.8787 0.49577 2.8738 1.0495 4.4062 1.2188 1.5324 0.16928 4.9494 0.73444 7.625 1.25 2.6756 0.51547 5.8728 0.98127 7.0938 1.0312 2.6086 0.10186 2.1567-0.77573 5.125 9.3125 2.2774 7.7401 4.2429 12.936 6.6562 17.344 1.114 2.0346 1.5958 3.3759 1.75 5.1875 0.25393 2.9847 2.1173 6.9008 5 10.406 1.9894 2.4192 3.0652 4.6136 3.625 7.3438 1.0867 5.2997 3.1478 9.214 5.9375 11.375 2.2172 1.7175 2.2176 1.7281 4.1562 8.5 1.3316 4.6517 1.8936 7.3388 1.75 8.5625-0.25773 2.1969 0.13993 3.4122 1.8438 5.4062 1.3954 1.6332 4.6998 3.7189 6.125 3.875 0.95563 0.1048 2.7548 2.5255 3.4375 4.625 0.23222 0.7141 0.34054 2.8537 0.21875 4.75-0.12199 1.8962-0.18366 3.5066-0.125 3.5938 0.0587 0.087 0.30497 1.457 0.5625 3.0312 0.2575 1.574 1.0472 4.3751 1.7188 6.25 0.67156 1.8749 1.8595 5.6916 2.6562 8.5 1.9848 6.9961 4.8867 16.337 6.6875 21.469 0.82469 2.3503 2.0804 6.702 2.7812 9.6875 1.4269 6.0787 2.9114 9.5382 6.5312 14.938 5.4823 8.177 12.292 11.824 20.438 10.969 3.0657-0.3221 3.3204-0.40665 6.9688-2.8438 6.0163-4.0189 7.8721-8.4417 6.75-16.062-0.57241-3.8876-0.57347-3.9066-4.375-9.6562-3.6603-5.536-4.6898-7.6276-5.4062-10.938-0.39357-1.8182-3.5296-7.8604-4.6562-9-0.43365-0.4388-1.3692-2.1056-2.0938-3.6562-5.1602-11.044-8.4437-16.98-13.062-23.875-4.773-7.1253-4.7401-7.1406-3.6562-10.969 1.2738-4.499 1.5894-8.6925 0.90625-11.312-0.26902-1.0319-0.42454-2.2574-0.375-2.7188 0.29171-2.714-3.1423-12.5-8-22.812-1.2363-2.6244-2.2813-4.9808-2.3438-5.25-0.0687-0.2956 1.1573-1.4424 3.125-2.9062 2.7466-2.0431 3.5207-2.858 4.9062-5.125 1.6447-2.691 1.6537-2.6742 4.3438-2.7812 5.4273-0.216 7.2945-0.9421 13.938-5.3125 7.3226-4.8176 8.5627-6.3032 9.7188-11.719 1.2079-5.6588 0.58542-8.7238-2.8125-13.875-1.5194-2.3036-2.8586-4.7541-3-5.4375-0.14148-0.6833-0.51184-1.5981-0.78125-2-0.73581-1.0975-0.33627-2.6284 0.875-3.4375 0.87485-0.5846 1.8201-0.58442 5.125 0.125 8.1406 1.7476 11.155-0.24092 13.406-8.9062 0.71916-2.7683 1.3709-4.222 2.5-5.5625 2.1526-2.5558 3.0485-4.1545 2.9375-5.2188-0.0528-0.50621 0.10715-1.0609 0.34375-1.2188 0.49569-0.33121 0.93899-4.2275 0.78125-6.75-0.12348-1.9745-0.10372-2.0356 1.9062-2.2812 2.5973-0.31761 7.4136-3.4163 9.4062-6.0625 2.926-3.8857 4.3351-9.4269 3.625-14.25-0.18526-1.2578-0.35273-3.4042-0.40625-4.75-0.17236-4.3421-0.61424-5.3458-4.9062-11.781-7.8099-11.71-10.655-15.37-13.062-16.781-2.0275-1.1886-5.9353-1.909-6.875-1.2812-0.80745 0.53939-2.3836-0.3127-5.4375-2.9062-3.9222-3.331-7.8757-5.4327-10.344-5.5-0.60045-0.0165-2.0368-0.59739-3.1875-1.3125-1.1508-0.71522-3.2752-1.5342-4.6875-1.8125-1.9316-0.38067-2.7143-0.76358-3.25-1.5625-1.3275-1.9801-3.961-4.2371-5.8438-5-1.7806-0.72144-2.0528-1.0115-5.2812-5.5312-3.7212-5.2095-4.7892-6.1112-9.5312-8.125-2.1584-0.91659-2.6322-1.3418-6.2812-5.6562-7.4843-8.849-8.5832-10.079-10.531-11.531-2.4059-1.7936-6.2087-3.1995-12.5-4.5938-2.3495-0.52064-4.1735-0.7742-5.8438-0.75zm130.47 72.312c-0.27536-9e-3 -0.57408 0.0175-0.84375 0.0312-0.30818 0.0158-0.6116 0.0159-0.90625 0.0625-1.9827 0.31372-5.3989 3.0576-6.6875 5.3438-2.4618 4.3678-0.51203 12.492 4.5938 19.188 4.9478 6.4885 11.678 9.0405 22.125 8.375 2.6208-0.16747 5.2709-0.24252 5.875-0.15625 2.0852 0.2963 8.4659 0.0623 11.656-0.4375 1.7601-0.27896 4.0528-0.37737 5.0625-0.25 1.0096 0.12782 2.6949 0.15086 3.75 0.0937 1.055-0.0571 2.3985-0.02 3 0.0625 0.60137 0.0817 2.7704-0.011 4.8125-0.21875 5.3247-0.54161 6.3357-0.45612 7.7812 0.8125 1.6432 1.442 1.6604 1.4485 4.0625-0.8125 1.5942-1.5009 2.3179-1.9506 3.1875-2.0312 0.99764-0.0929 1.1685-0.33528 1.7188-2.125 0.72865-2.3697 0.0483-4.545-2.6875-8.625-3.7224-5.552-6.4892-6.5292-14.938-5.25-0.36932 0.0559-2.0435-0.52575-3.7188-1.3125-4.0163-1.8862-12.619-3.7562-24.719-5.375-4.6994-0.62865-15.684-4.1574-17.844-5.7188-1.3632-0.98562-3.3537-1.5944-5.2812-1.6562zm-19.56 72.29c-1.0272 0.0104-1.9425 0.13845-2.25 0.34375-1.746 1.1603-1.3624 11.593 0.46875 12.75 1.1173 0.7058 6.9885 5.2885 9.75 7.625 1.4967 1.2663 1.9399 1.8394 2.0938 2.75 0.23987 1.4195 2.8115 3.9419 7.5312 7.25 7.2892 5.1087 14.858 11.425 15.75 13.156 0.76477 1.484 3.3886 4.3359 7.0312 7.625 0.70353 0.6352 3.0371 2.0823 5.1562 3.25 3.8528 2.1232 3.8464 2.1263 6.8438 7.0625 4.7973 7.9008 12.885 15.684 22.844 21.938 3.7457 2.3523 9.483 3.3844 15.781 2.8125 3.3327-0.3028 7.8704-3.6308 9.0938-6.6562 2.0518-5.074-0.0504-10.436-6.5625-16.531-1.595-1.4929-4.2334-4.3538-5.8125-6.3438-3.2216-4.059-4.5975-5.4324-8.0938-8.0312-2.2454-1.6689-3.7417-2.5772-9.125-5.5625-1.13-0.6266-5.3834-3.4634-9.4375-6.2812-4.0542-2.8177-8.1968-5.7074-9.2188-6.4062-1.0219-0.6989-3.9682-3.0142-6.5312-5.1562-5.1299-4.2873-14.186-9.727-19.375-11.656-3.9434-1.4663-4.3829-1.7348-9.2188-5.4062-9.7848-7.4286-11.195-8.1826-15.688-8.5-0.35018-0.0245-0.68884-0.0348-1.0312-0.0312zm-27.062 42.969c-1.2376 0.027-2.456 0.7288-5.0312 2.125-2.4766 1.3426-4.5413 2.4375-4.5938 2.4375-0.39721-0.04-0.32067 1.9756 0.0937 2.5938 0.3698 0.5515 0.16856 1.7426-0.65625 4.1875-1.7481 5.1823-1.4112 6.1506 5.25 16.156 5.2181 7.838 5.1843 7.8618 7.1875 8.8438 1.4355 0.7039 2.103 1.2802 2.375 2.0312 0.2237 0.6176 0.99871 1.4578 1.875 2.0625 1.1402 0.7866 2.297 2.2654 5.0312 6.3438 3.3574 5.0076 3.6217 5.456 3.8438 7.5312 0.23264 2.1745 0.3061 2.3318 5.75 10.438 3.0355 4.52 7.5366 10.912 10.031 14.219 2.4946 3.3071 7.8017 10.396 11.781 15.75 9.9521 13.39 13.887 17.084 20.25 18.906 8.2658 2.3674 16.359-4.5656 16.156-13.844-0.0913-4.1708-0.71084-5.7392-4.3125-10.656-1.6974-2.3173-4.7583-6.5193-6.7812-9.3125-2.0231-2.793-4.6991-6.058-5.9375-7.2812-1.2385-1.2235-3.071-3.482-4.0938-5-1.5811-2.3472-7.8645-8.8844-9.0625-9.4375-0.18235-0.084-2.3344-2.8359-4.7812-6.125-3.761-5.0554-4.7807-6.2086-6.5312-7.375-2.4648-1.6424-8.1989-9.8123-11.188-15.938-1.4503-2.9726-2.2125-4.0644-5.25-7.5625-1.95-2.2456-5.7112-7.1596-8.375-10.906-4.8433-6.8119-4.8604-6.8092-7.9062-8.2812-2.655-1.2834-3.8874-1.933-5.125-1.9062z" fill="#b3a"/>
  </g>
 </g>
</svg>
